<svg id="visual" viewBox="0 0 2000 1000" width="2000" height="1000" xmlns="http://www.w3.org/2000/svg" xmlns:xlink="http://www.w3.org/1999/xlink" version="1.1"><path d="M0 121L22.2 141C44.3 161 88.7 201 133.2 196C177.7 191 222.3 141 266.8 124.3C311.3 107.7 355.7 124.3 400 111C444.3 97.7 488.7 54.3 533.2 67.7C577.7 81 622.3 151 666.8 179.3C711.3 207.7 755.7 194.3 800 182.7C844.3 171 888.7 161 933.2 139.3C977.7 117.7 1022.3 84.3 1066.8 96C1111.3 107.7 1155.7 164.3 1200 157.7C1244.3 151 1288.7 81 1333.2 62.7C1377.7 44.3 1422.3 77.7 1466.8 81C1511.3 84.3 1555.7 57.7 1600 41C1644.3 24.3 1688.7 17.7 1733.2 49.3C1777.7 81 1822.3 151 1866.8 159.3C1911.3 167.7 1955.7 114.3 1977.8 87.7L2000 61L2000 0L1977.8 0C1955.7 0 1911.3 0 1866.8 0C1822.3 0 1777.7 0 1733.2 0C1688.7 0 1644.3 0 1600 0C1555.7 0 1511.3 0 1466.8 0C1422.3 0 1377.7 0 1333.2 0C1288.7 0 1244.3 0 1200 0C1155.7 0 1111.3 0 1066.8 0C1022.3 0 977.7 0 933.2 0C888.7 0 844.3 0 800 0C755.7 0 711.3 0 666.8 0C622.3 0 577.7 0 533.2 0C488.7 0 444.3 0 400 0C355.7 0 311.3 0 266.8 0C222.3 0 177.7 0 133.2 0C88.7 0 44.3 0 22.2 0L0 0Z" fill="#000000"></path><path d="M0 161L22.2 189.3C44.3 217.7 88.7 274.3 133.2 277.7C177.7 281 222.3 231 266.8 209.3C311.3 187.7 355.7 194.3 400 166C444.3 137.7 488.7 74.3 533.2 79.3C577.7 84.3 622.3 157.7 666.8 197.7C711.3 237.7 755.7 244.3 800 244.3C844.3 244.3 888.7 237.7 933.2 219.3C977.7 201 1022.3 171 1066.8 184.3C1111.3 197.7 1155.7 254.3 1200 244.3C1244.3 234.3 1288.7 157.7 1333.2 129.3C1377.7 101 1422.3 121 1466.8 114.3C1511.3 107.7 1555.7 74.3 1600 56C1644.3 37.7 1688.7 34.3 1733.2 64.3C1777.7 94.3 1822.3 157.7 1866.8 176C1911.3 194.3 1955.7 167.7 1977.8 154.3L2000 141L2000 59L1977.8 85.7C1955.7 112.3 1911.3 165.7 1866.8 157.3C1822.3 149 1777.7 79 1733.2 47.3C1688.7 15.7 1644.3 22.3 1600 39C1555.7 55.7 1511.3 82.3 1466.8 79C1422.3 75.7 1377.7 42.3 1333.2 60.7C1288.7 79 1244.3 149 1200 155.7C1155.7 162.3 1111.3 105.7 1066.8 94C1022.3 82.3 977.7 115.7 933.2 137.3C888.7 159 844.3 169 800 180.7C755.7 192.3 711.3 205.7 666.8 177.3C622.3 149 577.7 79 533.2 65.7C488.7 52.3 444.3 95.7 400 109C355.7 122.3 311.3 105.7 266.8 122.3C222.3 139 177.7 189 133.2 194C88.7 199 44.3 159 22.2 139L0 119Z" fill="#121416"></path><path d="M0 291L22.2 311C44.3 331 88.7 371 133.2 366C177.7 361 222.3 311 266.8 287.7C311.3 264.3 355.7 267.7 400 232.7C444.3 197.7 488.7 124.3 533.2 129.3C577.7 134.3 622.3 217.7 666.8 257.7C711.3 297.7 755.7 294.3 800 301C844.3 307.7 888.7 324.3 933.2 307.7C977.7 291 1022.3 241 1066.8 246C1111.3 251 1155.7 311 1200 309.3C1244.3 307.7 1288.7 244.3 1333.2 224.3C1377.7 204.3 1422.3 227.7 1466.8 222.7C1511.3 217.7 1555.7 184.3 1600 169.3C1644.3 154.3 1688.7 157.7 1733.2 192.7C1777.7 227.7 1822.3 294.3 1866.8 307.7C1911.3 321 1955.7 281 1977.8 261L2000 241L2000 139L1977.8 152.3C1955.7 165.7 1911.3 192.3 1866.8 174C1822.3 155.7 1777.7 92.3 1733.2 62.3C1688.7 32.3 1644.3 35.7 1600 54C1555.7 72.3 1511.3 105.7 1466.8 112.3C1422.3 119 1377.7 99 1333.2 127.3C1288.7 155.7 1244.3 232.3 1200 242.3C1155.7 252.3 1111.3 195.7 1066.8 182.3C1022.3 169 977.7 199 933.2 217.3C888.7 235.7 844.3 242.3 800 242.3C755.7 242.3 711.3 235.7 666.8 195.7C622.3 155.7 577.7 82.3 533.2 77.3C488.7 72.3 444.3 135.7 400 164C355.7 192.3 311.3 185.7 266.8 207.3C222.3 229 177.7 279 133.2 275.7C88.7 272.3 44.3 215.7 22.2 187.3L0 159Z" fill="#1f2123"></path><path d="M0 371L22.2 387.7C44.3 404.3 88.7 437.7 133.2 429.3C177.7 421 222.3 371 266.8 337.7C311.3 304.3 355.7 287.7 400 244.3C444.3 201 488.7 131 533.2 141C577.7 151 622.3 241 666.8 299.3C711.3 357.7 755.7 384.3 800 396C844.3 407.7 888.7 404.3 933.2 391C977.7 377.7 1022.3 354.3 1066.8 374.3C1111.3 394.3 1155.7 457.7 1200 436C1244.3 414.3 1288.7 307.7 1333.2 272.7C1377.7 237.7 1422.3 274.3 1466.8 279.3C1511.3 284.3 1555.7 257.7 1600 232.7C1644.3 207.7 1688.7 184.3 1733.2 222.7C1777.7 261 1822.3 361 1866.8 374.3C1911.3 387.7 1955.7 314.3 1977.8 277.7L2000 241L2000 239L1977.8 259C1955.7 279 1911.3 319 1866.8 305.7C1822.3 292.3 1777.7 225.7 1733.2 190.7C1688.7 155.7 1644.3 152.3 1600 167.3C1555.7 182.3 1511.3 215.7 1466.8 220.7C1422.3 225.7 1377.7 202.3 1333.2 222.3C1288.7 242.3 1244.3 305.7 1200 307.3C1155.7 309 1111.3 249 1066.8 244C1022.3 239 977.7 289 933.2 305.7C888.7 322.3 844.3 305.7 800 299C755.7 292.3 711.3 295.7 666.8 255.7C622.3 215.7 577.7 132.3 533.2 127.3C488.7 122.3 444.3 195.7 400 230.7C355.7 265.7 311.3 262.3 266.8 285.7C222.3 309 177.7 359 133.2 364C88.7 369 44.3 329 22.2 309L0 289Z" fill="#2d2f31"></path><path d="M0 381L22.2 407.7C44.3 434.3 88.7 487.7 133.2 486C177.7 484.3 222.3 427.7 266.8 394.3C311.3 361 355.7 351 400 316C444.3 281 488.7 221 533.2 236C577.7 251 622.3 341 666.8 394.3C711.3 447.7 755.7 464.3 800 471C844.3 477.7 888.7 474.3 933.2 452.7C977.7 431 1022.3 391 1066.8 401C1111.3 411 1155.7 471 1200 462.7C1244.3 454.3 1288.7 377.7 1333.2 357.7C1377.7 337.7 1422.3 374.3 1466.8 377.7C1511.3 381 1555.7 351 1600 317.7C1644.3 284.3 1688.7 247.7 1733.2 274.3C1777.7 301 1822.3 391 1866.8 406C1911.3 421 1955.7 361 1977.8 331L2000 301L2000 239L1977.8 275.7C1955.7 312.3 1911.3 385.7 1866.8 372.3C1822.3 359 1777.7 259 1733.2 220.7C1688.7 182.3 1644.3 205.7 1600 230.7C1555.7 255.7 1511.3 282.3 1466.8 277.3C1422.3 272.3 1377.7 235.7 1333.2 270.7C1288.7 305.7 1244.3 412.3 1200 434C1155.7 455.7 1111.3 392.3 1066.8 372.3C1022.3 352.3 977.7 375.7 933.2 389C888.7 402.3 844.3 405.7 800 394C755.7 382.3 711.3 355.7 666.8 297.3C622.3 239 577.7 149 533.2 139C488.7 129 444.3 199 400 242.3C355.7 285.7 311.3 302.3 266.8 335.7C222.3 369 177.7 419 133.2 427.3C88.7 435.7 44.3 402.3 22.2 385.7L0 369Z" fill="#3b3d3f"></path><path d="M0 421L22.2 466C44.3 511 88.7 601 133.2 622.7C177.7 644.3 222.3 597.7 266.8 542.7C311.3 487.7 355.7 424.3 400 451C444.3 477.7 488.7 594.3 533.2 626C577.7 657.7 622.3 604.3 666.8 576C711.3 547.7 755.7 544.3 800 532.7C844.3 521 888.7 501 933.2 511C977.7 521 1022.3 561 1066.8 576C1111.3 591 1155.7 581 1200 609.3C1244.3 637.7 1288.7 704.3 1333.2 754.3C1377.7 804.3 1422.3 837.7 1466.8 779.3C1511.3 721 1555.7 571 1600 506C1644.3 441 1688.7 461 1733.2 521C1777.7 581 1822.3 681 1866.8 666C1911.3 651 1955.7 521 1977.8 456L2000 391L2000 299L1977.8 329C1955.7 359 1911.3 419 1866.8 404C1822.3 389 1777.7 299 1733.2 272.3C1688.7 245.7 1644.3 282.3 1600 315.7C1555.7 349 1511.3 379 1466.8 375.7C1422.3 372.3 1377.7 335.7 1333.2 355.7C1288.7 375.7 1244.3 452.3 1200 460.7C1155.7 469 1111.3 409 1066.8 399C1022.3 389 977.7 429 933.2 450.7C888.7 472.3 844.3 475.7 800 469C755.7 462.3 711.3 445.7 666.8 392.3C622.3 339 577.7 249 533.2 234C488.7 219 444.3 279 400 314C355.7 349 311.3 359 266.8 392.3C222.3 425.7 177.7 482.3 133.2 484C88.7 485.7 44.3 432.3 22.2 405.7L0 379Z" fill="#494b4d"></path><path d="M0 491L22.2 532.7C44.3 574.3 88.7 657.7 133.2 679.3C177.7 701 222.3 661 266.8 614.3C311.3 567.7 355.7 514.3 400 546C444.3 577.7 488.7 694.3 533.2 721C577.7 747.7 622.3 684.3 666.8 652.7C711.3 621 755.7 621 800 612.7C844.3 604.3 888.7 587.7 933.2 599.3C977.7 611 1022.3 651 1066.8 652.7C1111.3 654.3 1155.7 617.7 1200 636C1244.3 654.3 1288.7 727.7 1333.2 787.7C1377.7 847.7 1422.3 894.3 1466.8 849.3C1511.3 804.3 1555.7 667.7 1600 599.3C1644.3 531 1688.7 531 1733.2 572.7C1777.7 614.3 1822.3 697.7 1866.8 686C1911.3 674.3 1955.7 567.7 1977.8 514.3L2000 461L2000 389L1977.8 454C1955.7 519 1911.3 649 1866.8 664C1822.3 679 1777.7 579 1733.2 519C1688.7 459 1644.3 439 1600 504C1555.7 569 1511.3 719 1466.8 777.3C1422.3 835.7 1377.7 802.3 1333.2 752.3C1288.7 702.3 1244.3 635.7 1200 607.3C1155.7 579 1111.3 589 1066.8 574C1022.3 559 977.7 519 933.2 509C888.7 499 844.3 519 800 530.7C755.7 542.3 711.3 545.7 666.8 574C622.3 602.3 577.7 655.7 533.2 624C488.7 592.3 444.3 475.7 400 449C355.7 422.3 311.3 485.7 266.8 540.7C222.3 595.7 177.7 642.3 133.2 620.7C88.7 599 44.3 509 22.2 464L0 419Z" fill="#585a5d"></path><path d="M0 681L22.2 696C44.3 711 88.7 741 133.2 746C177.7 751 222.3 731 266.8 702.7C311.3 674.3 355.7 637.7 400 662.7C444.3 687.7 488.7 774.3 533.2 787.7C577.7 801 622.3 741 666.8 717.7C711.3 694.3 755.7 707.7 800 712.7C844.3 717.7 888.7 714.3 933.2 734.3C977.7 754.3 1022.3 797.7 1066.8 802.7C1111.3 807.7 1155.7 774.3 1200 769.3C1244.3 764.3 1288.7 787.7 1333.2 822.7C1377.7 857.7 1422.3 904.3 1466.8 871C1511.3 837.7 1555.7 724.3 1600 686C1644.3 647.7 1688.7 684.3 1733.2 714.3C1777.7 744.3 1822.3 767.7 1866.8 747.7C1911.3 727.7 1955.7 664.3 1977.8 632.7L2000 601L2000 459L1977.8 512.3C1955.7 565.7 1911.3 672.3 1866.8 684C1822.3 695.7 1777.7 612.3 1733.2 570.7C1688.7 529 1644.3 529 1600 597.3C1555.7 665.7 1511.3 802.3 1466.8 847.3C1422.3 892.3 1377.7 845.7 1333.2 785.7C1288.7 725.7 1244.3 652.3 1200 634C1155.7 615.7 1111.3 652.3 1066.8 650.7C1022.3 649 977.7 609 933.2 597.3C888.7 585.7 844.3 602.3 800 610.7C755.7 619 711.3 619 666.8 650.7C622.3 682.3 577.7 745.7 533.2 719C488.7 692.3 444.3 575.7 400 544C355.7 512.3 311.3 565.7 266.8 612.3C222.3 659 177.7 699 133.2 677.3C88.7 655.7 44.3 572.3 22.2 530.7L0 489Z" fill="#686a6c"></path><path d="M0 981L22.2 966C44.3 951 88.7 921 133.2 904.3C177.7 887.7 222.3 884.3 266.8 896C311.3 907.7 355.7 934.3 400 934.3C444.3 934.3 488.7 907.7 533.2 894.3C577.7 881 622.3 881 666.8 884.3C711.3 887.7 755.7 894.3 800 897.7C844.3 901 888.7 901 933.2 906C977.7 911 1022.3 921 1066.8 934.3C1111.3 947.7 1155.7 964.3 1200 952.7C1244.3 941 1288.7 901 1333.2 897.7C1377.7 894.3 1422.3 927.7 1466.8 936C1511.3 944.3 1555.7 927.7 1600 909.3C1644.3 891 1688.7 871 1733.2 857.7C1777.7 844.3 1822.3 837.7 1866.8 842.7C1911.3 847.7 1955.7 864.3 1977.8 872.7L2000 881L2000 599L1977.8 630.7C1955.7 662.3 1911.3 725.7 1866.8 745.7C1822.3 765.7 1777.7 742.3 1733.2 712.3C1688.7 682.3 1644.3 645.7 1600 684C1555.7 722.3 1511.3 835.7 1466.8 869C1422.3 902.3 1377.7 855.7 1333.2 820.7C1288.7 785.7 1244.3 762.3 1200 767.3C1155.7 772.3 1111.3 805.7 1066.8 800.7C1022.3 795.7 977.7 752.3 933.2 732.3C888.7 712.3 844.3 715.7 800 710.7C755.7 705.7 711.3 692.3 666.8 715.7C622.3 739 577.7 799 533.2 785.7C488.7 772.3 444.3 685.7 400 660.7C355.7 635.7 311.3 672.3 266.8 700.7C222.3 729 177.7 749 133.2 744C88.7 739 44.3 709 22.2 694L0 679Z" fill="#787a7d"></path><path d="M0 1001L22.2 1001C44.3 1001 88.7 1001 133.2 1001C177.7 1001 222.3 1001 266.8 1001C311.3 1001 355.7 1001 400 1001C444.3 1001 488.7 1001 533.2 1001C577.7 1001 622.3 1001 666.8 1001C711.3 1001 755.7 1001 800 1001C844.3 1001 888.7 1001 933.2 1001C977.7 1001 1022.3 1001 1066.8 1001C1111.3 1001 1155.7 1001 1200 1001C1244.3 1001 1288.7 1001 1333.2 1001C1377.7 1001 1422.3 1001 1466.8 1001C1511.3 1001 1555.7 1001 1600 1001C1644.3 1001 1688.7 1001 1733.2 1001C1777.7 1001 1822.3 1001 1866.8 1001C1911.3 1001 1955.7 1001 1977.8 1001L2000 1001L2000 879L1977.8 870.7C1955.7 862.3 1911.3 845.7 1866.8 840.7C1822.3 835.7 1777.7 842.3 1733.2 855.7C1688.7 869 1644.3 889 1600 907.3C1555.7 925.7 1511.3 942.3 1466.8 934C1422.3 925.7 1377.7 892.3 1333.2 895.7C1288.7 899 1244.3 939 1200 950.7C1155.7 962.3 1111.3 945.7 1066.8 932.3C1022.3 919 977.7 909 933.2 904C888.7 899 844.3 899 800 895.7C755.7 892.3 711.3 885.7 666.8 882.3C622.3 879 577.7 879 533.2 892.3C488.7 905.7 444.3 932.3 400 932.3C355.7 932.3 311.3 905.7 266.8 894C222.3 882.3 177.7 885.7 133.2 902.3C88.7 919 44.3 949 22.2 964L0 979Z" fill="#888a8d"></path></svg>