<svg id="visual" viewBox="0 0 2000 1000" width="2000" height="1000" xmlns="http://www.w3.org/2000/svg" xmlns:xlink="http://www.w3.org/1999/xlink" version="1.1"><path d="M0 61L14.5 54.3C29 47.7 58 34.3 87 32.7C116 31 145 41 174 46C203 51 232 51 261 52.7C290 54.3 319 57.7 348 61C377 64.3 406 67.7 435 67.7C464 67.7 493 64.3 522 56C551 47.7 580 34.3 609 34.3C638 34.3 667 47.7 696 51C725 54.3 754 47.7 783 44.3C812 41 841 41 870 42.7C899 44.3 928 47.7 956.8 51C985.7 54.3 1014.3 57.7 1043.2 61C1072 64.3 1101 67.7 1130 62.7C1159 57.7 1188 44.3 1217 46C1246 47.7 1275 64.3 1304 72.7C1333 81 1362 81 1391 76C1420 71 1449 61 1478 54.3C1507 47.7 1536 44.3 1565 47.7C1594 51 1623 61 1652 61C1681 61 1710 51 1739 44.3C1768 37.7 1797 34.3 1826 32.7C1855 31 1884 31 1913 32.7C1942 34.3 1971 37.7 1985.5 39.3L2000 41L2000 0L1985.5 0C1971 0 1942 0 1913 0C1884 0 1855 0 1826 0C1797 0 1768 0 1739 0C1710 0 1681 0 1652 0C1623 0 1594 0 1565 0C1536 0 1507 0 1478 0C1449 0 1420 0 1391 0C1362 0 1333 0 1304 0C1275 0 1246 0 1217 0C1188 0 1159 0 1130 0C1101 0 1072 0 1043.2 0C1014.3 0 985.7 0 956.8 0C928 0 899 0 870 0C841 0 812 0 783 0C754 0 725 0 696 0C667 0 638 0 609 0C580 0 551 0 522 0C493 0 464 0 435 0C406 0 377 0 348 0C319 0 290 0 261 0C232 0 203 0 174 0C145 0 116 0 87 0C58 0 29 0 14.5 0L0 0Z" fill="#004cbb"></path><path d="M0 131L14.5 126C29 121 58 111 87 114.3C116 117.7 145 134.3 174 141C203 147.7 232 144.3 261 144.3C290 144.3 319 147.7 348 144.3C377 141 406 131 435 124.3C464 117.7 493 114.3 522 107.7C551 101 580 91 609 87.7C638 84.3 667 87.7 696 97.7C725 107.7 754 124.3 783 119.3C812 114.3 841 87.7 870 77.7C899 67.7 928 74.3 956.8 87.7C985.7 101 1014.3 121 1043.2 124.3C1072 127.7 1101 114.3 1130 102.7C1159 91 1188 81 1217 92.7C1246 104.3 1275 137.7 1304 146C1333 154.3 1362 137.7 1391 126C1420 114.3 1449 107.7 1478 106C1507 104.3 1536 107.7 1565 111C1594 114.3 1623 117.7 1652 121C1681 124.3 1710 127.7 1739 119.3C1768 111 1797 91 1826 87.7C1855 84.3 1884 97.7 1913 106C1942 114.3 1971 117.7 1985.5 119.3L2000 121L2000 39L1985.5 37.3C1971 35.7 1942 32.3 1913 30.7C1884 29 1855 29 1826 30.7C1797 32.3 1768 35.7 1739 42.3C1710 49 1681 59 1652 59C1623 59 1594 49 1565 45.7C1536 42.3 1507 45.7 1478 52.3C1449 59 1420 69 1391 74C1362 79 1333 79 1304 70.7C1275 62.3 1246 45.7 1217 44C1188 42.3 1159 55.7 1130 60.7C1101 65.7 1072 62.3 1043.2 59C1014.3 55.7 985.7 52.3 956.8 49C928 45.7 899 42.3 870 40.7C841 39 812 39 783 42.3C754 45.7 725 52.3 696 49C667 45.7 638 32.3 609 32.3C580 32.3 551 45.7 522 54C493 62.3 464 65.7 435 65.7C406 65.7 377 62.3 348 59C319 55.7 290 52.3 261 50.7C232 49 203 49 174 44C145 39 116 29 87 30.7C58 32.3 29 45.7 14.5 52.3L0 59Z" fill="#0052ca"></path><path d="M0 311L14.5 284.3C29 257.7 58 204.3 87 192.7C116 181 145 211 174 241C203 271 232 301 261 312.7C290 324.3 319 317.7 348 314.3C377 311 406 311 435 304.3C464 297.7 493 284.3 522 256C551 227.7 580 184.3 609 184.3C638 184.3 667 227.7 696 249.3C725 271 754 271 783 271C812 271 841 271 870 257.7C899 244.3 928 217.7 956.8 229.3C985.7 241 1014.3 291 1043.2 299.3C1072 307.7 1101 274.3 1130 242.7C1159 211 1188 181 1217 182.7C1246 184.3 1275 217.7 1304 221C1333 224.3 1362 197.7 1391 197.7C1420 197.7 1449 224.3 1478 226C1507 227.7 1536 204.3 1565 209.3C1594 214.3 1623 247.7 1652 247.7C1681 247.7 1710 214.3 1739 199.3C1768 184.3 1797 187.7 1826 191C1855 194.3 1884 197.7 1913 212.7C1942 227.7 1971 254.3 1985.5 267.7L2000 281L2000 119L1985.5 117.3C1971 115.7 1942 112.3 1913 104C1884 95.7 1855 82.3 1826 85.7C1797 89 1768 109 1739 117.3C1710 125.7 1681 122.3 1652 119C1623 115.7 1594 112.3 1565 109C1536 105.7 1507 102.3 1478 104C1449 105.7 1420 112.3 1391 124C1362 135.7 1333 152.3 1304 144C1275 135.7 1246 102.3 1217 90.7C1188 79 1159 89 1130 100.7C1101 112.3 1072 125.7 1043.2 122.3C1014.3 119 985.7 99 956.8 85.7C928 72.3 899 65.7 870 75.7C841 85.7 812 112.3 783 117.3C754 122.3 725 105.7 696 95.7C667 85.7 638 82.3 609 85.7C580 89 551 99 522 105.7C493 112.3 464 115.7 435 122.3C406 129 377 139 348 142.3C319 145.7 290 142.3 261 142.3C232 142.3 203 145.7 174 139C145 132.3 116 115.7 87 112.3C58 109 29 119 14.5 124L0 129Z" fill="#0057d9"></path><path d="M0 351L14.5 322.7C29 294.3 58 237.7 87 226C116 214.3 145 247.7 174 277.7C203 307.7 232 334.3 261 346C290 357.7 319 354.3 348 364.3C377 374.3 406 397.7 435 392.7C464 387.7 493 354.3 522 317.7C551 281 580 241 609 242.7C638 244.3 667 287.7 696 309.3C725 331 754 331 783 337.7C812 344.3 841 357.7 870 351C899 344.3 928 317.7 956.8 327.7C985.7 337.7 1014.3 384.3 1043.2 391C1072 397.7 1101 364.3 1130 337.7C1159 311 1188 291 1217 294.3C1246 297.7 1275 324.3 1304 322.7C1333 321 1362 291 1391 289.3C1420 287.7 1449 314.3 1478 319.3C1507 324.3 1536 307.7 1565 307.7C1594 307.7 1623 324.3 1652 322.7C1681 321 1710 301 1739 294.3C1768 287.7 1797 294.3 1826 294.3C1855 294.3 1884 287.7 1913 296C1942 304.3 1971 327.7 1985.5 339.3L2000 351L2000 279L1985.5 265.7C1971 252.3 1942 225.7 1913 210.7C1884 195.7 1855 192.3 1826 189C1797 185.7 1768 182.3 1739 197.3C1710 212.3 1681 245.7 1652 245.7C1623 245.7 1594 212.3 1565 207.3C1536 202.3 1507 225.7 1478 224C1449 222.3 1420 195.7 1391 195.7C1362 195.7 1333 222.3 1304 219C1275 215.7 1246 182.3 1217 180.7C1188 179 1159 209 1130 240.7C1101 272.3 1072 305.7 1043.2 297.3C1014.3 289 985.7 239 956.8 227.3C928 215.7 899 242.3 870 255.7C841 269 812 269 783 269C754 269 725 269 696 247.3C667 225.7 638 182.3 609 182.3C580 182.3 551 225.7 522 254C493 282.3 464 295.7 435 302.3C406 309 377 309 348 312.3C319 315.7 290 322.3 261 310.7C232 299 203 269 174 239C145 209 116 179 87 190.7C58 202.3 29 255.7 14.5 282.3L0 309Z" fill="#005de8"></path><path d="M0 421L14.5 407.7C29 394.3 58 367.7 87 357.7C116 347.7 145 354.3 174 372.7C203 391 232 421 261 441C290 461 319 471 348 479.3C377 487.7 406 494.3 435 494.3C464 494.3 493 487.7 522 452.7C551 417.7 580 354.3 609 349.3C638 344.3 667 397.7 696 426C725 454.3 754 457.7 783 469.3C812 481 841 501 870 481C899 461 928 401 956.8 397.7C985.7 394.3 1014.3 447.7 1043.2 454.3C1072 461 1101 421 1130 391C1159 361 1188 341 1217 341C1246 341 1275 361 1304 361C1333 361 1362 341 1391 346C1420 351 1449 381 1478 401C1507 421 1536 431 1565 444.3C1594 457.7 1623 474.3 1652 462.7C1681 451 1710 411 1739 391C1768 371 1797 371 1826 376C1855 381 1884 391 1913 396C1942 401 1971 401 1985.5 401L2000 401L2000 349L1985.5 337.3C1971 325.7 1942 302.3 1913 294C1884 285.7 1855 292.3 1826 292.3C1797 292.3 1768 285.7 1739 292.3C1710 299 1681 319 1652 320.7C1623 322.3 1594 305.7 1565 305.7C1536 305.7 1507 322.3 1478 317.3C1449 312.3 1420 285.7 1391 287.3C1362 289 1333 319 1304 320.7C1275 322.3 1246 295.7 1217 292.3C1188 289 1159 309 1130 335.7C1101 362.3 1072 395.7 1043.2 389C1014.3 382.3 985.7 335.7 956.8 325.7C928 315.7 899 342.3 870 349C841 355.7 812 342.3 783 335.7C754 329 725 329 696 307.3C667 285.7 638 242.3 609 240.7C580 239 551 279 522 315.7C493 352.3 464 385.7 435 390.7C406 395.7 377 372.3 348 362.3C319 352.3 290 355.7 261 344C232 332.3 203 305.7 174 275.7C145 245.7 116 212.3 87 224C58 235.7 29 292.3 14.5 320.7L0 349Z" fill="#0063f7"></path><path d="M0 691L14.5 687.7C29 684.3 58 677.7 87 647.7C116 617.7 145 564.3 174 557.7C203 551 232 591 261 626C290 661 319 691 348 696C377 701 406 681 435 689.3C464 697.7 493 734.3 522 732.7C551 731 580 691 609 674.3C638 657.7 667 664.3 696 649.3C725 634.3 754 597.7 783 601C812 604.3 841 647.7 870 661C899 674.3 928 657.7 956.8 641C985.7 624.3 1014.3 607.7 1043.2 611C1072 614.3 1101 637.7 1130 624.3C1159 611 1188 561 1217 542.7C1246 524.3 1275 537.7 1304 551C1333 564.3 1362 577.7 1391 601C1420 624.3 1449 657.7 1478 669.3C1507 681 1536 671 1565 652.7C1594 634.3 1623 607.7 1652 602.7C1681 597.7 1710 614.3 1739 622.7C1768 631 1797 631 1826 634.3C1855 637.7 1884 644.3 1913 646C1942 647.7 1971 644.3 1985.5 642.7L2000 641L2000 399L1985.5 399C1971 399 1942 399 1913 394C1884 389 1855 379 1826 374C1797 369 1768 369 1739 389C1710 409 1681 449 1652 460.7C1623 472.3 1594 455.7 1565 442.3C1536 429 1507 419 1478 399C1449 379 1420 349 1391 344C1362 339 1333 359 1304 359C1275 359 1246 339 1217 339C1188 339 1159 359 1130 389C1101 419 1072 459 1043.2 452.3C1014.3 445.7 985.7 392.3 956.8 395.7C928 399 899 459 870 479C841 499 812 479 783 467.3C754 455.7 725 452.3 696 424C667 395.7 638 342.3 609 347.3C580 352.3 551 415.7 522 450.7C493 485.7 464 492.3 435 492.3C406 492.3 377 485.7 348 477.3C319 469 290 459 261 439C232 419 203 389 174 370.7C145 352.3 116 345.7 87 355.7C58 365.7 29 392.3 14.5 405.7L0 419Z" fill="#156cff"></path><path d="M0 741L14.5 732.7C29 724.3 58 707.7 87 682.7C116 657.7 145 624.3 174 629.3C203 634.3 232 677.7 261 711C290 744.3 319 767.7 348 772.7C377 777.7 406 764.3 435 776C464 787.7 493 824.3 522 819.3C551 814.3 580 767.7 609 749.3C638 731 667 741 696 724.3C725 707.7 754 664.3 783 661C812 657.7 841 694.3 870 707.7C899 721 928 711 956.8 699.3C985.7 687.7 1014.3 674.3 1043.2 679.3C1072 684.3 1101 707.7 1130 692.7C1159 677.7 1188 624.3 1217 602.7C1246 581 1275 591 1304 609.3C1333 627.7 1362 654.3 1391 679.3C1420 704.3 1449 727.7 1478 734.3C1507 741 1536 731 1565 706C1594 681 1623 641 1652 637.7C1681 634.3 1710 667.7 1739 682.7C1768 697.7 1797 694.3 1826 689.3C1855 684.3 1884 677.7 1913 677.7C1942 677.7 1971 684.3 1985.5 687.7L2000 691L2000 639L1985.5 640.7C1971 642.3 1942 645.7 1913 644C1884 642.3 1855 635.7 1826 632.3C1797 629 1768 629 1739 620.7C1710 612.3 1681 595.7 1652 600.7C1623 605.7 1594 632.3 1565 650.7C1536 669 1507 679 1478 667.3C1449 655.7 1420 622.3 1391 599C1362 575.7 1333 562.3 1304 549C1275 535.7 1246 522.3 1217 540.7C1188 559 1159 609 1130 622.3C1101 635.7 1072 612.3 1043.2 609C1014.3 605.7 985.7 622.3 956.8 639C928 655.7 899 672.3 870 659C841 645.7 812 602.3 783 599C754 595.7 725 632.3 696 647.3C667 662.3 638 655.7 609 672.3C580 689 551 729 522 730.7C493 732.3 464 695.7 435 687.3C406 679 377 699 348 694C319 689 290 659 261 624C232 589 203 549 174 555.7C145 562.3 116 615.7 87 645.7C58 675.7 29 682.3 14.5 685.7L0 689Z" fill="#2d77ff"></path><path d="M0 891L14.5 886C29 881 58 871 87 867.7C116 864.3 145 867.7 174 869.3C203 871 232 871 261 874.3C290 877.7 319 884.3 348 891C377 897.7 406 904.3 435 912.7C464 921 493 931 522 921C551 911 580 881 609 864.3C638 847.7 667 844.3 696 856C725 867.7 754 894.3 783 904.3C812 914.3 841 907.7 870 894.3C899 881 928 861 956.8 861C985.7 861 1014.3 881 1043.2 891C1072 901 1101 901 1130 906C1159 911 1188 921 1217 914.3C1246 907.7 1275 884.3 1304 884.3C1333 884.3 1362 907.7 1391 906C1420 904.3 1449 877.7 1478 871C1507 864.3 1536 877.7 1565 884.3C1594 891 1623 891 1652 881C1681 871 1710 851 1739 857.7C1768 864.3 1797 897.7 1826 909.3C1855 921 1884 911 1913 904.3C1942 897.7 1971 894.3 1985.5 892.7L2000 891L2000 689L1985.5 685.7C1971 682.3 1942 675.7 1913 675.7C1884 675.7 1855 682.3 1826 687.3C1797 692.3 1768 695.7 1739 680.7C1710 665.7 1681 632.3 1652 635.7C1623 639 1594 679 1565 704C1536 729 1507 739 1478 732.3C1449 725.7 1420 702.3 1391 677.3C1362 652.3 1333 625.7 1304 607.3C1275 589 1246 579 1217 600.7C1188 622.3 1159 675.7 1130 690.7C1101 705.7 1072 682.3 1043.2 677.3C1014.3 672.3 985.7 685.7 956.8 697.3C928 709 899 719 870 705.7C841 692.3 812 655.7 783 659C754 662.3 725 705.7 696 722.3C667 739 638 729 609 747.3C580 765.7 551 812.3 522 817.3C493 822.3 464 785.7 435 774C406 762.3 377 775.7 348 770.7C319 765.7 290 742.3 261 709C232 675.7 203 632.3 174 627.3C145 622.3 116 655.7 87 680.7C58 705.7 29 722.3 14.5 730.7L0 739Z" fill="#4082ff"></path><path d="M0 941L14.5 947.7C29 954.3 58 967.7 87 971C116 974.3 145 967.7 174 962.7C203 957.7 232 954.3 261 952.7C290 951 319 951 348 952.7C377 954.3 406 957.7 435 962.7C464 967.7 493 974.3 522 976C551 977.7 580 974.3 609 967.7C638 961 667 951 696 947.7C725 944.3 754 947.7 783 951C812 954.3 841 957.7 870 959.3C899 961 928 961 956.8 959.3C985.7 957.7 1014.3 954.3 1043.2 957.7C1072 961 1101 971 1130 976C1159 981 1188 981 1217 972.7C1246 964.3 1275 947.7 1304 944.3C1333 941 1362 951 1391 959.3C1420 967.7 1449 974.3 1478 974.3C1507 974.3 1536 967.7 1565 961C1594 954.3 1623 947.7 1652 942.7C1681 937.7 1710 934.3 1739 939.3C1768 944.3 1797 957.7 1826 966C1855 974.3 1884 977.7 1913 971C1942 964.3 1971 947.7 1985.5 939.3L2000 931L2000 889L1985.5 890.7C1971 892.3 1942 895.7 1913 902.3C1884 909 1855 919 1826 907.3C1797 895.7 1768 862.3 1739 855.7C1710 849 1681 869 1652 879C1623 889 1594 889 1565 882.3C1536 875.7 1507 862.3 1478 869C1449 875.7 1420 902.3 1391 904C1362 905.7 1333 882.3 1304 882.3C1275 882.3 1246 905.7 1217 912.3C1188 919 1159 909 1130 904C1101 899 1072 899 1043.2 889C1014.3 879 985.7 859 956.8 859C928 859 899 879 870 892.3C841 905.7 812 912.3 783 902.3C754 892.3 725 865.7 696 854C667 842.3 638 845.7 609 862.3C580 879 551 909 522 919C493 929 464 919 435 910.7C406 902.3 377 895.7 348 889C319 882.3 290 875.7 261 872.3C232 869 203 869 174 867.3C145 865.7 116 862.3 87 865.7C58 869 29 879 14.5 884L0 889Z" fill="#518dff"></path><path d="M0 1001L14.5 1001C29 1001 58 1001 87 1001C116 1001 145 1001 174 1001C203 1001 232 1001 261 1001C290 1001 319 1001 348 1001C377 1001 406 1001 435 1001C464 1001 493 1001 522 1001C551 1001 580 1001 609 1001C638 1001 667 1001 696 1001C725 1001 754 1001 783 1001C812 1001 841 1001 870 1001C899 1001 928 1001 956.8 1001C985.7 1001 1014.3 1001 1043.2 1001C1072 1001 1101 1001 1130 1001C1159 1001 1188 1001 1217 1001C1246 1001 1275 1001 1304 1001C1333 1001 1362 1001 1391 1001C1420 1001 1449 1001 1478 1001C1507 1001 1536 1001 1565 1001C1594 1001 1623 1001 1652 1001C1681 1001 1710 1001 1739 1001C1768 1001 1797 1001 1826 1001C1855 1001 1884 1001 1913 1001C1942 1001 1971 1001 1985.5 1001L2000 1001L2000 929L1985.5 937.3C1971 945.7 1942 962.3 1913 969C1884 975.7 1855 972.3 1826 964C1797 955.7 1768 942.3 1739 937.3C1710 932.3 1681 935.7 1652 940.7C1623 945.7 1594 952.3 1565 959C1536 965.7 1507 972.3 1478 972.3C1449 972.3 1420 965.7 1391 957.3C1362 949 1333 939 1304 942.3C1275 945.7 1246 962.3 1217 970.7C1188 979 1159 979 1130 974C1101 969 1072 959 1043.2 955.7C1014.3 952.3 985.7 955.7 956.8 957.3C928 959 899 959 870 957.3C841 955.7 812 952.3 783 949C754 945.7 725 942.3 696 945.7C667 949 638 959 609 965.7C580 972.3 551 975.7 522 974C493 972.3 464 965.7 435 960.7C406 955.7 377 952.3 348 950.7C319 949 290 949 261 950.7C232 952.3 203 955.7 174 960.7C145 965.7 116 972.3 87 969C58 965.7 29 952.3 14.5 945.7L0 939Z" fill="#6198ff"></path></svg>